<svg width="31" height="16" viewBox="0 0 31 16" fill="none" xmlns="http://www.w3.org/2000/svg">
<path d="M5.075 2.576V3.632H14.787V2.576H5.075ZM4.403 5.808V6.912H15.363V5.808H4.403ZM7.219 0.719999V6.416H8.371V0.719999H7.219ZM11.347 0.719999V6.416H12.547V0.719999H11.347ZM6.099 8.192V15.328H7.267V9.216H12.739V15.264H13.955V8.192H6.099ZM6.675 10.912V11.856H13.315V10.912H6.675ZM6.675 13.616V14.624H13.315V13.616H6.675ZM4.099 0.624C3.203 3.056 1.699 5.456 0.115 7.008C0.339 7.28 0.675 7.92 0.803 8.192C2.531 6.4 4.179 3.696 5.235 0.976L4.099 0.624ZM2.435 4.752V15.264H3.587V3.632L3.555 3.616L2.435 4.752ZM18.995 1.696V2.848H29.347V1.696H18.995ZM18.995 5.424V6.56H29.331V5.424H18.995ZM18.915 9.248V10.384H29.363V9.248H18.915ZM18.323 1.696V7.488C18.323 9.744 18.147 12.592 16.387 14.576C16.643 14.736 17.123 15.136 17.315 15.376C19.219 13.248 19.507 9.936 19.507 7.504V1.696H18.323ZM28.867 1.696V13.648C28.867 13.952 28.755 14.048 28.451 14.064C28.147 14.064 27.059 14.08 25.923 14.032C26.099 14.352 26.291 14.88 26.339 15.2C27.859 15.216 28.787 15.2 29.331 15.008C29.859 14.8 30.051 14.432 30.051 13.648V1.696H28.867ZM23.347 2.128V15.136H24.563V2.128H23.347Z" fill="white"/>
</svg>
